<?xml version="1.0" encoding="UTF-8" standalone="no"?>
<!-- Created with Inkscape (http://www.inkscape.org/) -->

<svg
   width="33.226349mm"
   height="3.175mm"
   viewBox="0 0 33.226349 3.175"
   version="1.1"
   id="svg5"
   inkscape:version="1.2.1 (9c6d41e410, 2022-07-14)"
   sodipodi:docname="spoiler.svg"
   xmlns:inkscape="http://www.inkscape.org/namespaces/inkscape"
   xmlns:sodipodi="http://sodipodi.sourceforge.net/DTD/sodipodi-0.dtd"
   xmlns="http://www.w3.org/2000/svg"
   xmlns:svg="http://www.w3.org/2000/svg">
  <sodipodi:namedview
     id="namedview7"
     pagecolor="#505050"
     bordercolor="#eeeeee"
     borderopacity="1"
     inkscape:showpageshadow="0"
     inkscape:pageopacity="0"
     inkscape:pagecheckerboard="0"
     inkscape:deskcolor="#505050"
     inkscape:document-units="mm"
     showgrid="false"
     inkscape:zoom="5.2952301"
     inkscape:cx="102.45069"
     inkscape:cy="73.84004"
     inkscape:window-width="1920"
     inkscape:window-height="1007"
     inkscape:window-x="0"
     inkscape:window-y="0"
     inkscape:window-maximized="1"
     inkscape:current-layer="layer1" />
  <defs
     id="defs2">
    <rect
       x="15.86882"
       y="22.766104"
       width="189.07028"
       height="105.09269"
       id="rect790" />
  </defs>
  <g
     inkscape:label="Livello 1"
     inkscape:groupmode="layer"
     id="layer1"
     transform="translate(-0.14604997)">
    <g
       aria-label="Hover to reveal spoiler"
       transform="matrix(0.26458333,0,0,0.26458333,-4.3606351,-6.4992586)"
       id="text788"
       style="white-space:pre;shape-inside:url(#rect790);display:inline;fill:#868686">
      <path
         d="m 23.585141,33.684127 h -1.08 v -3.996 h -4.392 v 3.996 h -1.08 v -8.568 h 1.08 v 3.624 h 4.392 v -3.624 h 1.08 z"
         id="path278" />
      <path
         d="m 31.373131,30.456127 q 0,1.596 -0.816,2.472 -0.804,0.876 -2.184,0.876 -0.852,0 -1.524,-0.384 -0.66,-0.396 -1.044,-1.14 -0.384,-0.756 -0.384,-1.824 0,-1.596 0.804,-2.46 0.804,-0.864 2.184,-0.864 0.876,0 1.536,0.396 0.672,0.384 1.044,1.128 0.384,0.732 0.384,1.8 z m -4.86,0 q 0,1.14 0.444,1.812 0.456,0.66 1.44,0.66 0.972,0 1.428,-0.66 0.456,-0.672 0.456,-1.812 0,-1.14 -0.456,-1.788 -0.456,-0.648 -1.44,-0.648 -0.984,0 -1.428,0.648 -0.444,0.648 -0.444,1.788 z"
         id="path280" />
      <path
         d="m 34.21712,33.684127 -2.436,-6.432 h 1.128 l 1.368,3.792 q 0.096,0.264 0.204,0.588 0.108,0.324 0.192,0.624 0.084,0.288 0.12,0.492 h 0.048 q 0.048,-0.204 0.132,-0.504 0.096,-0.3 0.204,-0.624 0.12,-0.324 0.204,-0.576 l 1.368,-3.792 h 1.128 l -2.448,6.432 z"
         id="path282" />
      <path
         d="m 41.381113,27.132127 q 0.828,0 1.416,0.36 0.6,0.36 0.912,1.02 0.324,0.648 0.324,1.524 v 0.636 h -4.404 q 0.024,1.092 0.552,1.668 0.54,0.564 1.5,0.564 0.612,0 1.08,-0.108 0.48,-0.12 0.984,-0.336 v 0.924 q -0.492,0.216 -0.972,0.312 -0.48,0.108 -1.14,0.108 -0.912,0 -1.62,-0.372 -0.696,-0.372 -1.092,-1.104 -0.384,-0.744 -0.384,-1.812 0,-1.056 0.348,-1.812 0.36,-0.756 0.996,-1.164 0.648,-0.408 1.5,-0.408 z m -0.012,0.864 q -0.756,0 -1.2,0.492 -0.432,0.48 -0.516,1.344 h 3.276 q -0.012,-0.816 -0.384,-1.32 -0.372,-0.516 -1.176,-0.516 z"
         id="path284" />
      <path
         d="m 48.665103,27.132127 q 0.18,0 0.384,0.024 0.216,0.012 0.372,0.048 l -0.132,0.972 q -0.156,-0.036 -0.348,-0.06 -0.18,-0.024 -0.348,-0.024 -0.492,0 -0.924,0.276 -0.432,0.264 -0.696,0.756 -0.252,0.48 -0.252,1.128 v 3.432 h -1.056 v -6.432 h 0.864 l 0.12,1.176 h 0.048 q 0.312,-0.528 0.804,-0.912 0.492,-0.384 1.164,-0.384 z"
         id="path286" />
      <path
         d="m 55.889107,32.940127 q 0.24,0 0.492,-0.036 0.252,-0.048 0.408,-0.096 v 0.804 q -0.168,0.084 -0.48,0.132 -0.312,0.06 -0.6,0.06 -0.504,0 -0.936,-0.168 -0.42,-0.18 -0.684,-0.612 -0.264,-0.432 -0.264,-1.212 v -3.744 h -0.912 v -0.504 l 0.924,-0.42 0.42,-1.368 h 0.624 v 1.476 h 1.86 v 0.816 h -1.86 v 3.72 q 0,0.588 0.276,0.876 0.288,0.276 0.732,0.276 z"
         id="path288" />
      <path
         d="m 63.665108,30.456127 q 0,1.596 -0.816,2.472 -0.804,0.876 -2.184,0.876 -0.852,0 -1.524,-0.384 -0.66,-0.396 -1.044,-1.14 -0.384,-0.756 -0.384,-1.824 0,-1.596 0.804,-2.46 0.804,-0.864 2.184,-0.864 0.876,0 1.536,0.396 0.672,0.384 1.044,1.128 0.384,0.732 0.384,1.8 z m -4.86,0 q 0,1.14 0.444,1.812 0.456,0.66 1.44,0.66 0.972,0 1.428,-0.66 0.456,-0.672 0.456,-1.812 0,-1.14 -0.456,-1.788 -0.456,-0.648 -1.44,-0.648 -0.984,0 -1.428,0.648 -0.444,0.648 -0.444,1.788 z"
         id="path290" />
      <path
         d="m 71.453105,27.132127 q 0.18,0 0.384,0.024 0.216,0.012 0.372,0.048 l -0.132,0.972 q -0.156,-0.036 -0.348,-0.06 -0.18,-0.024 -0.348,-0.024 -0.492,0 -0.924,0.276 -0.432,0.264 -0.696,0.756 -0.252,0.48 -0.252,1.128 v 3.432 h -1.056 v -6.432 h 0.864 l 0.12,1.176 h 0.048 q 0.312,-0.528 0.804,-0.912 0.492,-0.384 1.164,-0.384 z"
         id="path292" />
      <path
         d="m 75.653101,27.132127 q 0.828,0 1.416,0.36 0.6,0.36 0.912,1.02 0.324,0.648 0.324,1.524 v 0.636 h -4.404 q 0.024,1.092 0.552,1.668 0.54,0.564 1.5,0.564 0.612,0 1.08,-0.108 0.48,-0.12 0.984,-0.336 v 0.924 q -0.492,0.216 -0.972,0.312 -0.48,0.108 -1.14,0.108 -0.912,0 -1.62,-0.372 -0.696,-0.372 -1.092,-1.104 -0.384,-0.744 -0.384,-1.812 0,-1.056 0.348,-1.812 0.36,-0.756 0.996,-1.164 0.648,-0.408 1.5,-0.408 z m -0.012,0.864 q -0.756,0 -1.2,0.492 -0.432,0.48 -0.516,1.344 h 3.276 q -0.012,-0.816 -0.384,-1.32 -0.372,-0.516 -1.176,-0.516 z"
         id="path294" />
      <path
         d="m 81.113086,33.684127 -2.436,-6.432 h 1.128 l 1.368,3.792 q 0.096,0.264 0.204,0.588 0.108,0.324 0.192,0.624 0.084,0.288 0.12,0.492 h 0.048 q 0.048,-0.204 0.132,-0.504 0.096,-0.3 0.204,-0.624 0.12,-0.324 0.204,-0.576 l 1.368,-3.792 h 1.128 l -2.448,6.432 z"
         id="path296" />
      <path
         d="m 88.277079,27.132127 q 0.828,0 1.416,0.36 0.6,0.36 0.912,1.02 0.324,0.648 0.324,1.524 v 0.636 h -4.404 q 0.024,1.092 0.552,1.668 0.54,0.564 1.5,0.564 0.612,0 1.08,-0.108 0.48,-0.12 0.984,-0.336 v 0.924 q -0.492,0.216 -0.972,0.312 -0.48,0.108 -1.14,0.108 -0.912,0 -1.62,-0.372 -0.696,-0.372 -1.092,-1.104 -0.384,-0.744 -0.384,-1.812 0,-1.056 0.348,-1.812 0.36,-0.756 0.996,-1.164 0.648,-0.408 1.5,-0.408 z m -0.012,0.864 q -0.756,0 -1.2,0.492 -0.432,0.48 -0.516,1.344 h 3.276 q -0.012,-0.816 -0.384,-1.32 -0.372,-0.516 -1.176,-0.516 z"
         id="path298" />
      <path
         d="m 94.997069,27.144127 q 1.176,0 1.74,0.516 0.564,0.516 0.564,1.644 v 4.38 h -0.768 l -0.204,-0.912 h -0.048 q -0.42,0.528 -0.888,0.78 -0.456,0.252 -1.272,0.252 -0.876,0 -1.452,-0.456 -0.576,-0.468 -0.576,-1.452 0,-0.96 0.756,-1.476 0.756,-0.528 2.328,-0.576 l 1.092,-0.036 v -0.384 q 0,-0.804 -0.348,-1.116 -0.348,-0.312 -0.984,-0.312 -0.504,0 -0.96,0.156 -0.456,0.144 -0.852,0.336 l -0.324,-0.792 q 0.42,-0.228 0.996,-0.384 0.576,-0.168 1.2,-0.168 z m 0.312,3.432 q -1.2,0.048 -1.668,0.384 -0.456,0.336 -0.456,0.948 0,0.54 0.324,0.792 0.336,0.252 0.852,0.252 0.816,0 1.356,-0.444 0.54,-0.456 0.54,-1.392 v -0.576 z"
         id="path300" />
      <path
         d="m 100.34908,33.684127 h -1.056001 v -9.12 h 1.056001 z"
         id="path302" />
      <path
         d="m 109.69707,31.908127 q 0,0.936 -0.696,1.416 -0.696,0.48 -1.872,0.48 -0.672,0 -1.164,-0.108 -0.48,-0.108 -0.852,-0.3 v -0.96 q 0.384,0.192 0.924,0.36 0.552,0.156 1.116,0.156 0.804,0 1.164,-0.252 0.36,-0.264 0.36,-0.696 0,-0.24 -0.132,-0.432 -0.132,-0.192 -0.48,-0.384 -0.336,-0.192 -0.972,-0.432 -0.624,-0.24 -1.068,-0.48 -0.444,-0.24 -0.684,-0.576 -0.24,-0.336 -0.24,-0.864 0,-0.816 0.66,-1.26 0.672,-0.444 1.752,-0.444 0.588,0 1.092,0.12 0.516,0.108 0.96,0.312 l -0.36,0.84 q -0.408,-0.168 -0.852,-0.288 -0.444,-0.12 -0.912,-0.12 -0.648,0 -0.996,0.216 -0.336,0.204 -0.336,0.564 0,0.264 0.156,0.456 0.156,0.18 0.516,0.36 0.372,0.168 0.984,0.408 0.612,0.228 1.044,0.468 0.432,0.24 0.66,0.588 0.228,0.336 0.228,0.852 z"
         id="path304" />
      <path
         d="m 114.31708,27.132127 q 1.188,0 1.908,0.828 0.732,0.828 0.732,2.496 0,1.644 -0.732,2.496 -0.72,0.852 -1.92,0.852 -0.744,0 -1.236,-0.276 -0.48,-0.288 -0.756,-0.66 h -0.072 q 0.024,0.204 0.048,0.516 0.024,0.312 0.024,0.54 v 2.64 h -1.056 v -9.312 h 0.864 l 0.144,0.876 h 0.048 q 0.288,-0.42 0.756,-0.708 0.468,-0.288 1.248,-0.288 z m -0.192,0.888 q -0.984,0 -1.392,0.552 -0.396,0.552 -0.42,1.68 v 0.204 q 0,1.188 0.384,1.836 0.396,0.636 1.452,0.636 0.588,0 0.96,-0.324 0.384,-0.324 0.564,-0.876 0.192,-0.564 0.192,-1.284 0,-1.104 -0.432,-1.764 -0.42,-0.66 -1.308,-0.66 z"
         id="path306" />
      <path
         d="m 124.22907,30.456127 q 0,1.596 -0.816,2.472 -0.804,0.876 -2.184,0.876 -0.852,0 -1.524,-0.384 -0.66,-0.396 -1.044,-1.14 -0.384,-0.756 -0.384,-1.824 0,-1.596 0.804,-2.46 0.804,-0.864 2.184,-0.864 0.876,0 1.536,0.396 0.672,0.384 1.044,1.128 0.384,0.732 0.384,1.8 z m -4.86,0 q 0,1.14 0.444,1.812 0.456,0.66 1.44,0.66 0.972,0 1.428,-0.66 0.456,-0.672 0.456,-1.812 0,-1.14 -0.456,-1.788 -0.456,-0.648 -1.44,-0.648 -0.984,0 -1.428,0.648 -0.444,0.648 -0.444,1.788 z"
         id="path308" />
      <path
         d="m 126.43707,24.840127 q 0.24,0 0.42,0.168 0.192,0.156 0.192,0.504 0,0.336 -0.192,0.504 -0.18,0.168 -0.42,0.168 -0.264,0 -0.444,-0.168 -0.18,-0.168 -0.18,-0.504 0,-0.348 0.18,-0.504 0.18,-0.168 0.444,-0.168 z m 0.516,2.412 v 6.432 h -1.056 v -6.432 z"
         id="path310" />
      <path
         d="m 130.04906,33.684127 h -1.056 v -9.12 h 1.056 z"
         id="path312" />
      <path
         d="m 134.57305,27.132127 q 0.828,0 1.416,0.36 0.6,0.36 0.912,1.02 0.324,0.648 0.324,1.524 v 0.636 h -4.404 q 0.024,1.092 0.552,1.668 0.54,0.564 1.5,0.564 0.612,0 1.08,-0.108 0.48,-0.12 0.984,-0.336 v 0.924 q -0.492,0.216 -0.972,0.312 -0.48,0.108 -1.14,0.108 -0.912,0 -1.62,-0.372 -0.696,-0.372 -1.092,-1.104 -0.384,-0.744 -0.384,-1.812 0,-1.056 0.348,-1.812 0.36,-0.756 0.996,-1.164 0.648,-0.408 1.5,-0.408 z m -0.012,0.864 q -0.756,0 -1.2,0.492 -0.432,0.48 -0.516,1.344 h 3.276 q -0.012,-0.816 -0.384,-1.32 -0.372,-0.516 -1.176,-0.516 z"
         id="path314" />
      <path
         d="m 141.85704,27.132127 q 0.18,0 0.384,0.024 0.216,0.012 0.372,0.048 l -0.132,0.972 q -0.156,-0.036 -0.348,-0.06 -0.18,-0.024 -0.348,-0.024 -0.492,0 -0.924,0.276 -0.432,0.264 -0.696,0.756 -0.252,0.48 -0.252,1.128 v 3.432 h -1.056 v -6.432 h 0.864 l 0.12,1.176 h 0.048 q 0.312,-0.528 0.804,-0.912 0.492,-0.384 1.164,-0.384 z"
         id="path316" />
    </g>
  </g>
</svg>
